<?xml version="1.0" encoding="iso-8859-1"?>
<!-- Generator: Adobe Illustrator 19.0.0, SVG Export Plug-In . SVG Version: 6.00 Build 0)  -->
<svg version="1.1" id="Capa_1" xmlns="http://www.w3.org/2000/svg" xmlns:xlink="http://www.w3.org/1999/xlink" x="0px" y="0px"
	 viewBox="0 0 512 512" style="enable-background:new 0 0 512 512;" xml:space="preserve">
<g>
	<g>
		<path d="M509.069,301.93C507.21,300.07,504.63,299,502,299s-5.21,1.07-7.07,2.93c-1.861,1.86-2.93,4.44-2.93,7.07
			s1.07,5.21,2.93,7.07c1.86,1.86,4.44,2.93,7.07,2.93s5.21-1.07,7.069-2.93c1.861-1.86,2.931-4.44,2.931-7.07
			S510.929,303.79,509.069,301.93z"/>
	</g>
</g>
<g>
	<g>
		<path d="M502,281.281c5.522,0,10-4.477,10-10V50c0-27.57-22.43-50-50-50H50C22.43,0,0,22.43,0,50v412c0,27.57,22.43,50,50,50h412
			c27.57,0,50-22.43,50-50V347.668c0-5.523-4.478-10-10-10c-5.522,0-10,4.477-10,10V462c0,16.542-13.458,30-30,30H50
			c-16.542,0-30-13.458-30-30V50c0-13.036,8.361-24.152,20-28.28v55.613c0,5.523,4.478,10,10,10s10-4.477,10-10V20h402
			c16.542,0,30,13.458,30,30v221.281C492,276.804,496.478,281.281,502,281.281z"/>
	</g>
</g>
<g>
	<g>
		<path d="M57.069,106.26c-1.859-1.86-4.439-2.93-7.069-2.93s-5.21,1.07-7.07,2.93S40,110.7,40,113.33c0,2.64,1.069,5.21,2.93,7.07
			c1.86,1.87,4.44,2.93,7.07,2.93s5.21-1.06,7.069-2.93c1.86-1.86,2.931-4.43,2.931-7.07C60,110.7,58.93,108.12,57.069,106.26z"/>
	</g>
</g>
<g>
	<g>
		<path d="M392,54H120c-18.748,0-34,15.252-34,34v48c0,18.748,15.252,34,34,34h272c18.748,0,34-15.252,34-34V88
			C426,69.252,410.748,54,392,54z M406,136c0,7.72-6.28,14-14,14H120c-7.72,0-14-6.28-14-14V88c0-7.72,6.28-14,14-14h272
			c7.72,0,14,6.28,14,14V136z"/>
	</g>
</g>
<g>
	<g>
		<path d="M417.973,255.805c-10.748-15.877-27.831-26.282-46.87-28.546l-29.54-3.513c-13.852-1.649-27.773,2.721-38.201,11.982
			c-10.429,9.262-16.409,22.572-16.409,36.519c0,20.065,6.203,39.275,17.938,55.553l2.009,2.787
			c9.989,13.856,14.979,30.881,14.049,47.938l-2.181,40.01c-0.764,14.032,4.136,27.378,13.799,37.581
			c9.662,10.203,22.721,15.822,36.773,15.822c27.927,0,50.647-22.721,50.647-50.648v-57.71c0-18.11,2.381-36.162,7.076-53.653
			C432.034,291.409,428.721,271.682,417.973,255.805z M407.748,304.742c-5.15,19.182-7.76,38.978-7.76,58.838v57.71
			c0,16.898-13.748,30.647-30.647,30.647c-8.503,0-16.405-3.4-22.252-9.574c-5.847-6.174-8.813-14.25-8.35-22.74l2.181-40.01
			c1.177-21.605-5.143-43.17-17.795-60.722h-0.001l-2.009-2.787c-9.265-12.851-14.161-28.017-14.161-43.857
			c0-8.236,3.532-16.096,9.689-21.565c5.305-4.711,12.138-7.277,19.159-7.277c1.13,0,2.265,0.067,3.401,0.202l29.54,3.513
			c13.271,1.578,25.178,8.83,32.669,19.897C408.904,278.084,411.213,291.834,407.748,304.742z"/>
	</g>
</g>
<g>
	<g>
		<path d="M340.359,196.02c-1.859-1.86-4.439-2.93-7.069-2.93s-5.21,1.07-7.07,2.93c-1.861,1.86-2.93,4.44-2.93,7.07
			c0,2.64,1.07,5.21,2.93,7.07c1.86,1.87,4.429,2.93,7.07,2.93c2.63,0,5.21-1.06,7.069-2.93c1.861-1.86,2.931-4.44,2.931-7.07
			S342.219,197.88,340.359,196.02z"/>
	</g>
</g>
<g>
	<g>
		<path d="M371.109,196.02c-1.869-1.86-4.449-2.93-7.069-2.93c-2.63,0-5.21,1.07-7.08,2.93c-1.86,1.86-2.92,4.44-2.92,7.07
			c0,2.64,1.06,5.21,2.92,7.07c1.87,1.87,4.439,2.93,7.08,2.93c2.63,0,5.21-1.06,7.069-2.93c1.861-1.86,2.931-4.44,2.931-7.07
			S372.969,197.88,371.109,196.02z"/>
	</g>
</g>
<g>
	<g>
		<path d="M401.84,204.7c-1.86-1.86-4.44-2.93-7.07-2.93s-5.21,1.07-7.069,2.93c-1.861,1.86-2.931,4.44-2.931,7.07
			c0,2.64,1.071,5.21,2.931,7.07c1.859,1.87,4.439,2.93,7.069,2.93c2.629,0,5.209-1.06,7.07-2.93c1.861-1.86,2.93-4.44,2.93-7.07
			S403.7,206.57,401.84,204.7z"/>
	</g>
</g>
<g>
	<g>
		<path d="M427.529,219.84c-1.869-1.86-4.449-2.93-7.069-2.93c-2.63,0-5.21,1.07-7.08,2.93c-1.86,1.86-2.92,4.44-2.92,7.07
			s1.06,5.21,2.92,7.07c1.87,1.86,4.439,2.93,7.08,2.93c2.63,0,5.2-1.07,7.069-2.93c1.861-1.86,2.931-4.44,2.931-7.07
			S429.389,221.7,427.529,219.84z"/>
	</g>
</g>
<g>
	<g>
		<path d="M304.019,202.29c-1.859-1.86-4.429-2.93-7.069-2.93c-2.631,0-5.21,1.07-7.07,2.93c-1.861,1.86-2.93,4.44-2.93,7.07
			s1.07,5.21,2.93,7.07c1.87,1.86,4.439,2.93,7.07,2.93c2.63,0,5.21-1.07,7.069-2.93c1.87-1.86,2.931-4.44,2.931-7.07
			S305.889,204.15,304.019,202.29z"/>
	</g>
</g>
<g>
	<g>
		<path d="M208.638,235.729c-10.427-9.261-24.351-13.628-38.201-11.982l-29.54,3.513c-19.039,2.264-36.122,12.669-46.87,28.546
			c-10.748,15.878-14.061,35.604-9.09,54.122c4.695,17.491,7.076,35.543,7.076,53.653v57.71c0,27.927,22.72,50.647,50.647,50.647
			c14.052,0,27.111-5.62,36.773-15.822c9.663-10.203,14.564-23.549,13.799-37.581l-2.181-40.009
			c-0.93-17.057,4.06-34.082,14.049-47.938l2.01-2.788c11.735-16.277,17.937-35.487,17.937-55.552
			C225.047,258.301,219.067,244.99,208.638,235.729z M190.887,316.103l-2.01,2.788h-0.001
			c-12.652,17.552-18.972,39.117-17.795,60.722l2.181,40.009c0.463,8.491-2.503,16.567-8.35,22.741
			c-5.847,6.174-13.749,9.574-22.252,9.574c-16.899,0-30.647-13.748-30.647-30.647v-57.71c0-19.86-2.611-39.656-7.76-58.838
			c-3.465-12.908-1.156-26.658,6.336-37.725c7.491-11.067,19.398-18.319,32.669-19.897l29.54-3.513
			c1.134-0.136,2.27-0.202,3.4-0.202c7.02,0,13.856,2.567,19.16,7.277c6.157,5.469,9.689,13.329,9.689,21.565
			C205.047,288.087,200.151,303.252,190.887,316.103z"/>
	</g>
</g>
<g>
	<g>
		<path d="M185.779,196.02c-1.859-1.86-4.439-2.93-7.069-2.93s-5.21,1.07-7.07,2.93c-1.861,1.86-2.93,4.44-2.93,7.07
			c0,2.64,1.07,5.21,2.93,7.07c1.86,1.87,4.44,2.93,7.07,2.93s5.21-1.06,7.069-2.93c1.861-1.86,2.931-4.43,2.931-7.07
			C188.71,200.46,187.639,197.88,185.779,196.02z"/>
	</g>
</g>
<g>
	<g>
		<path d="M155.03,196.02c-1.86-1.86-4.44-2.93-7.06-2.93c-2.63,0-5.21,1.07-7.08,2.93c-1.861,1.86-2.93,4.44-2.93,7.07
			c0,2.64,1.07,5.21,2.93,7.08c1.87,1.86,4.45,2.92,7.08,2.92c2.62,0,5.2-1.06,7.06-2.92c1.87-1.87,2.931-4.44,2.931-7.08
			C157.961,200.46,156.9,197.88,155.03,196.02z"/>
	</g>
</g>
<g>
	<g>
		<path d="M124.299,204.7c-1.86-1.86-4.44-2.93-7.07-2.93c-2.639,0-5.21,1.07-7.069,2.93c-1.861,1.86-2.931,4.44-2.931,7.07
			s1.071,5.21,2.931,7.08c1.859,1.86,4.429,2.92,7.069,2.92c2.63,0,5.21-1.06,7.07-2.92c1.861-1.87,2.93-4.44,2.93-7.08
			C127.229,209.14,126.159,206.56,124.299,204.7z"/>
	</g>
</g>
<g>
	<g>
		<path d="M98.62,219.84c-1.87-1.86-4.45-2.93-7.08-2.93c-2.63,0-5.2,1.07-7.07,2.93c-1.861,1.86-2.93,4.44-2.93,7.07
			s1.07,5.21,2.93,7.07c1.87,1.86,4.44,2.93,7.07,2.93c2.63,0,5.21-1.07,7.08-2.93c1.859-1.86,2.92-4.44,2.92-7.07
			S100.479,221.7,98.62,219.84z"/>
	</g>
</g>
<g>
	<g>
		<path d="M222.12,202.29c-1.86-1.86-4.44-2.93-7.07-2.93c-2.639,0-5.219,1.07-7.07,2.93c-1.86,1.86-2.93,4.44-2.93,7.07
			s1.071,5.21,2.93,7.07c1.86,1.86,4.43,2.93,7.07,2.93c2.63,0,5.21-1.07,7.07-2.93s2.93-4.44,2.93-7.07
			S223.979,204.15,222.12,202.29z"/>
	</g>
</g>
<g>
	<g>
		<path d="M263.069,88.26c-1.859-1.86-4.439-2.93-7.069-2.93s-5.21,1.07-7.07,2.93c-1.861,1.87-2.93,4.45-2.93,7.07
			c0,2.63,1.07,5.21,2.93,7.07c1.86,1.87,4.44,2.93,7.07,2.93s5.21-1.06,7.069-2.93c1.861-1.86,2.931-4.43,2.931-7.07
			C266,92.7,264.929,90.12,263.069,88.26z"/>
	</g>
</g>
<g>
	<g>
		<path d="M263.069,116.93C261.21,115.07,258.63,114,256,114s-5.21,1.07-7.07,2.93c-1.861,1.86-2.93,4.44-2.93,7.07
			s1.07,5.21,2.93,7.07S253.37,134,256,134s5.21-1.07,7.069-2.93c1.861-1.86,2.931-4.44,2.931-7.07S264.929,118.79,263.069,116.93z"
			/>
	</g>
</g>
<g>
	<g>
		<path d="M210.284,102H160c-5.522,0-10,4.477-10,10s4.478,10,10,10h50.284c5.523,0,10-4.477,10-10S215.806,102,210.284,102z"/>
	</g>
</g>
<g>
	<g>
		<path d="M352,102h-50.284c-5.522,0-10,4.477-10,10s4.478,10,10,10H352c5.522,0,10-4.477,10-10S357.522,102,352,102z"/>
	</g>
</g>
<g>
</g>
<g>
</g>
<g>
</g>
<g>
</g>
<g>
</g>
<g>
</g>
<g>
</g>
<g>
</g>
<g>
</g>
<g>
</g>
<g>
</g>
<g>
</g>
<g>
</g>
<g>
</g>
<g>
</g>
</svg>
